<svg xmlns="http://www.w3.org/2000/svg" xmlns:xlink="http://www.w3.org/1999/xlink" width="86.125" height="67.5" viewBox="0 0 86.125 67.5">
  <defs>
    <style>
      .cls-1 {
        fill-rule: evenodd;
        filter: url(#filter);
      }
    </style>
    <filter id="filter" x="541" y="863.375" width="86.125" height="67.5" filterUnits="userSpaceOnUse">
      <feFlood result="flood" flood-color="#54d154"/>
      <feComposite result="composite" operator="in" in2="SourceGraphic"/>
      <feBlend result="blend" in2="SourceGraphic"/>
    </filter>
  </defs>
  <path id="Forma_1" data-name="Forma 1" class="cls-1" d="M623.723,889.639a42.258,42.258,0,0,0-22.928-22.874,42.79,42.79,0,0,0-33.455,0,42.275,42.275,0,0,0-22.928,22.874,42.783,42.783,0,0,0,3.365,39.85,2.927,2.927,0,0,0,2.6,1.39h67.39a2.924,2.924,0,0,0,2.594-1.39A42.78,42.78,0,0,0,623.723,889.639ZM579.717,871.3a6.126,6.126,0,1,1-1.8,4.34A5.937,5.937,0,0,1,579.717,871.3Zm-22.062,39.369a6.124,6.124,0,1,1,1.8-4.339A5.937,5.937,0,0,1,557.655,910.666Zm9.229-21.482a6.125,6.125,0,1,1,1.8-4.34A5.935,5.935,0,0,1,566.884,889.184Zm27.229,0.408-4.855,18.317a9.125,9.125,0,0,1,3.462,4.365,9.212,9.212,0,0,1-3.99,11.22,9,9,0,0,1-7.018.959,8.824,8.824,0,0,1-5.624-4.267,9.167,9.167,0,0,1,2.068-11.724,9.141,9.141,0,0,1,5.142-2.087l4.855-18.318a3.03,3.03,0,0,1,1.442-1.895,2.873,2.873,0,0,1,2.307-.311A3.14,3.14,0,0,1,594.113,889.592Zm7.139-.408a6.16,6.16,0,1,1,4.349,1.8A5.907,5.907,0,0,1,601.252,889.184Zm17.928,21.482a6.126,6.126,0,1,1,1.8-4.339A5.937,5.937,0,0,1,619.18,910.666Z" transform="translate(-541 -863.375)"/>
</svg>
